<?xml version="1.0" encoding="UTF-8" standalone="no"?><svg xmlns="http://www.w3.org/2000/svg" xmlns:xlink="http://www.w3.org/1999/xlink" contentScriptType="application/ecmascript" contentStyleType="text/css" height="694px" preserveAspectRatio="none" style="width:504px;height:694px;" version="1.1" viewBox="0 0 504 694" width="504px" zoomAndPan="magnify"><defs><filter height="300%" id="fphwoqz3b5955" width="300%" x="-1" y="-1"><feGaussianBlur result="blurOut" stdDeviation="2.0"/><feColorMatrix in="blurOut" result="blurOut2" type="matrix" values="0 0 0 0 0 0 0 0 0 0 0 0 0 0 0 0 0 0 .4 0"/><feOffset dx="4.0" dy="4.0" in="blurOut2" result="blurOut3"/><feBlend in="SourceGraphic" in2="blurOut3" mode="normal"/></filter></defs><g><text fill="#000000" font-family="sans-serif" font-size="18" lengthAdjust="spacingAndGlyphs" textLength="243" x="134.5" y="19.2419">Architecture - Class Diagram</text><!--MD5=[3fd616f346a44cd59a91eb10b19e157c]
class User--><rect fill="#FEFECE" filter="url(#fphwoqz3b5955)" height="122.9094" id="User" style="stroke: #A80036; stroke-width: 1.5;" width="141" x="69" y="186.5158"/><ellipse cx="121.75" cy="202.5158" fill="#ADD1B2" rx="11" ry="11" style="stroke: #A80036; stroke-width: 1.0;"/><path d="M124.7188,208.1565 Q124.1406,208.4533 123.5,208.594 Q122.8594,208.7502 122.1563,208.7502 Q119.6563,208.7502 118.3281,207.1096 Q117.0156,205.4533 117.0156,202.3283 Q117.0156,199.2033 118.3281,197.5471 Q119.6563,195.8908 122.1563,195.8908 Q122.8594,195.8908 123.5,196.0471 Q124.1563,196.2033 124.7188,196.5002 L124.7188,199.219 Q124.0938,198.6408 123.5,198.3752 Q122.9063,198.094 122.2813,198.094 Q120.9375,198.094 120.25,199.1721 Q119.5625,200.2346 119.5625,202.3283 Q119.5625,204.4221 120.25,205.5002 Q120.9375,206.5627 122.2813,206.5627 Q122.9063,206.5627 123.5,206.2971 Q124.0938,206.0158 124.7188,205.4377 L124.7188,208.1565 Z "/><text fill="#000000" font-family="sans-serif" font-size="12" lengthAdjust="spacingAndGlyphs" textLength="27" x="142.25" y="207.1719">User</text><line style="stroke: #A80036; stroke-width: 1.5;" x1="70" x2="209" y1="218.5158" y2="218.5158"/><ellipse cx="80" cy="229.5158" fill="none" rx="3" ry="3" style="stroke: #038048; stroke-width: 1.0;"/><text fill="#000000" font-family="sans-serif" font-size="11" lengthAdjust="spacingAndGlyphs" textLength="41" x="89" y="234.2748">UUID id</text><ellipse cx="80" cy="244.4977" fill="none" rx="3" ry="3" style="stroke: #038048; stroke-width: 1.0;"/><text fill="#000000" font-family="sans-serif" font-size="11" lengthAdjust="spacingAndGlyphs" textLength="62" x="89" y="249.2566">string email</text><ellipse cx="80" cy="259.4796" fill="none" rx="3" ry="3" style="stroke: #038048; stroke-width: 1.0;"/><text fill="#000000" font-family="sans-serif" font-size="11" lengthAdjust="spacingAndGlyphs" textLength="115" x="89" y="264.2385">string password_hash</text><line style="stroke: #A80036; stroke-width: 1.5;" x1="70" x2="209" y1="271.4615" y2="271.4615"/><ellipse cx="80" cy="282.4615" fill="#84BE84" rx="3" ry="3" style="stroke: #038048; stroke-width: 1.0;"/><text fill="#000000" font-family="sans-serif" font-size="11" lengthAdjust="spacingAndGlyphs" textLength="47" x="89" y="287.2204">register()</text><ellipse cx="80" cy="297.4434" fill="#84BE84" rx="3" ry="3" style="stroke: #038048; stroke-width: 1.0;"/><text fill="#000000" font-family="sans-serif" font-size="11" lengthAdjust="spacingAndGlyphs" textLength="33" x="89" y="302.2023">login()</text><!--MD5=[dbb8b4f13c7b21394f9d757e58732f45]
class Service--><rect fill="#FEFECE" filter="url(#fphwoqz3b5955)" height="77.9638" id="Service" style="stroke: #A80036; stroke-width: 1.5;" width="89" x="404" y="411.0158"/><ellipse cx="426.2" cy="427.0158" fill="#ADD1B2" rx="11" ry="11" style="stroke: #A80036; stroke-width: 1.0;"/><path d="M429.1688,432.6565 Q428.5906,432.9533 427.95,433.094 Q427.3094,433.2502 426.6063,433.2502 Q424.1063,433.2502 422.7781,431.6096 Q421.4656,429.9533 421.4656,426.8283 Q421.4656,423.7033 422.7781,422.0471 Q424.1063,420.3908 426.6063,420.3908 Q427.3094,420.3908 427.95,420.5471 Q428.6063,420.7033 429.1688,421.0002 L429.1688,423.719 Q428.5438,423.1408 427.95,422.8752 Q427.3563,422.594 426.7313,422.594 Q425.3875,422.594 424.7,423.6721 Q424.0125,424.7346 424.0125,426.8283 Q424.0125,428.9221 424.7,430.0002 Q425.3875,431.0627 426.7313,431.0627 Q427.3563,431.0627 427.95,430.7971 Q428.5438,430.5158 429.1688,429.9377 L429.1688,432.6565 Z "/><text fill="#000000" font-family="sans-serif" font-size="12" lengthAdjust="spacingAndGlyphs" textLength="41" x="441.8" y="431.6719">Service</text><line style="stroke: #A80036; stroke-width: 1.5;" x1="405" x2="492" y1="443.0158" y2="443.0158"/><ellipse cx="415" cy="454.0158" fill="none" rx="3" ry="3" style="stroke: #038048; stroke-width: 1.0;"/><text fill="#000000" font-family="sans-serif" font-size="11" lengthAdjust="spacingAndGlyphs" textLength="41" x="424" y="458.7748">UUID id</text><ellipse cx="415" cy="468.9977" fill="none" rx="3" ry="3" style="stroke: #038048; stroke-width: 1.0;"/><text fill="#000000" font-family="sans-serif" font-size="11" lengthAdjust="spacingAndGlyphs" textLength="63" x="424" y="473.7566">string name</text><line style="stroke: #A80036; stroke-width: 1.5;" x1="405" x2="492" y1="480.9796" y2="480.9796"/><!--MD5=[e4ac4745f81aec2db60ad4ddae80b659]
class UserService--><rect fill="#FEFECE" filter="url(#fphwoqz3b5955)" height="122.9094" id="UserService" style="stroke: #A80036; stroke-width: 1.5;" width="143" x="6" y="388.5158"/><ellipse cx="40.35" cy="404.5158" fill="#ADD1B2" rx="11" ry="11" style="stroke: #A80036; stroke-width: 1.0;"/><path d="M43.3188,410.1565 Q42.7406,410.4533 42.1,410.594 Q41.4594,410.7502 40.7563,410.7502 Q38.2563,410.7502 36.9281,409.1096 Q35.6156,407.4533 35.6156,404.3283 Q35.6156,401.2033 36.9281,399.5471 Q38.2563,397.8908 40.7563,397.8908 Q41.4594,397.8908 42.1,398.0471 Q42.7563,398.2033 43.3188,398.5002 L43.3188,401.219 Q42.6938,400.6408 42.1,400.3752 Q41.5063,400.094 40.8813,400.094 Q39.5375,400.094 38.85,401.1721 Q38.1625,402.2346 38.1625,404.3283 Q38.1625,406.4221 38.85,407.5002 Q39.5375,408.5627 40.8813,408.5627 Q41.5063,408.5627 42.1,408.2971 Q42.6938,408.0158 43.3188,407.4377 L43.3188,410.1565 Z "/><text fill="#000000" font-family="sans-serif" font-size="12" lengthAdjust="spacingAndGlyphs" textLength="68" x="58.65" y="409.1719">UserService</text><line style="stroke: #A80036; stroke-width: 1.5;" x1="7" x2="148" y1="420.5158" y2="420.5158"/><ellipse cx="17" cy="431.5158" fill="none" rx="3" ry="3" style="stroke: #038048; stroke-width: 1.0;"/><text fill="#000000" font-family="sans-serif" font-size="11" lengthAdjust="spacingAndGlyphs" textLength="41" x="26" y="436.2748">UUID id</text><ellipse cx="17" cy="446.4977" fill="none" rx="3" ry="3" style="stroke: #038048; stroke-width: 1.0;"/><text fill="#000000" font-family="sans-serif" font-size="11" lengthAdjust="spacingAndGlyphs" textLength="69" x="26" y="451.2566">UUID user_id</text><ellipse cx="17" cy="461.4796" fill="none" rx="3" ry="3" style="stroke: #038048; stroke-width: 1.0;"/><text fill="#000000" font-family="sans-serif" font-size="11" lengthAdjust="spacingAndGlyphs" textLength="82" x="26" y="466.2385">UUID service_id</text><ellipse cx="17" cy="476.4615" fill="none" rx="3" ry="3" style="stroke: #038048; stroke-width: 1.0;"/><text fill="#000000" font-family="sans-serif" font-size="11" lengthAdjust="spacingAndGlyphs" textLength="100" x="26" y="481.2204">string oauth_token</text><ellipse cx="17" cy="491.4434" fill="none" rx="3" ry="3" style="stroke: #038048; stroke-width: 1.0;"/><text fill="#000000" font-family="sans-serif" font-size="11" lengthAdjust="spacingAndGlyphs" textLength="117" x="26" y="496.2023">datetime token_expiry</text><line style="stroke: #A80036; stroke-width: 1.5;" x1="7" x2="148" y1="503.4253" y2="503.4253"/><!--MD5=[f8e7078f77c005d15b486c0c98deb1e6]
class Action--><rect fill="#FEFECE" filter="url(#fphwoqz3b5955)" height="92.9457" id="Action" style="stroke: #A80036; stroke-width: 1.5;" width="90" x="403.5" y="590.5158"/><ellipse cx="428.85" cy="606.5158" fill="#ADD1B2" rx="11" ry="11" style="stroke: #A80036; stroke-width: 1.0;"/><path d="M431.8188,612.1565 Q431.2406,612.4533 430.6,612.594 Q429.9594,612.7502 429.2563,612.7502 Q426.7563,612.7502 425.4281,611.1096 Q424.1156,609.4533 424.1156,606.3283 Q424.1156,603.2033 425.4281,601.5471 Q426.7563,599.8908 429.2563,599.8908 Q429.9594,599.8908 430.6,600.0471 Q431.2563,600.2033 431.8188,600.5002 L431.8188,603.219 Q431.1938,602.6408 430.6,602.3752 Q430.0063,602.094 429.3813,602.094 Q428.0375,602.094 427.35,603.1721 Q426.6625,604.2346 426.6625,606.3283 Q426.6625,608.4221 427.35,609.5002 Q428.0375,610.5627 429.3813,610.5627 Q430.0063,610.5627 430.6,610.2971 Q431.1938,610.0158 431.8188,609.4377 L431.8188,612.1565 Z "/><text fill="#000000" font-family="sans-serif" font-size="12" lengthAdjust="spacingAndGlyphs" textLength="35" x="445.15" y="611.1719">Action</text><line style="stroke: #A80036; stroke-width: 1.5;" x1="404.5" x2="492.5" y1="622.5158" y2="622.5158"/><ellipse cx="414.5" cy="633.5158" fill="none" rx="3" ry="3" style="stroke: #038048; stroke-width: 1.0;"/><text fill="#000000" font-family="sans-serif" font-size="11" lengthAdjust="spacingAndGlyphs" textLength="41" x="423.5" y="638.2748">UUID id</text><ellipse cx="414.5" cy="648.4977" fill="none" rx="3" ry="3" style="stroke: #038048; stroke-width: 1.0;"/><text fill="#000000" font-family="sans-serif" font-size="11" lengthAdjust="spacingAndGlyphs" textLength="63" x="423.5" y="653.2566">string name</text><ellipse cx="414.5" cy="663.4796" fill="none" rx="3" ry="3" style="stroke: #038048; stroke-width: 1.0;"/><text fill="#000000" font-family="sans-serif" font-size="11" lengthAdjust="spacingAndGlyphs" textLength="64" x="423.5" y="668.2385">json schema</text><line style="stroke: #A80036; stroke-width: 1.5;" x1="404.5" x2="492.5" y1="675.4615" y2="675.4615"/><!--MD5=[ddc36e88a2144077ea4257ea6b073d34]
class Reaction--><rect fill="#FEFECE" filter="url(#fphwoqz3b5955)" height="92.9457" id="Reaction" style="stroke: #A80036; stroke-width: 1.5;" width="90" x="276.5" y="590.5158"/><ellipse cx="296" cy="606.5158" fill="#ADD1B2" rx="11" ry="11" style="stroke: #A80036; stroke-width: 1.0;"/><path d="M298.9688,612.1565 Q298.3906,612.4533 297.75,612.594 Q297.1094,612.7502 296.4063,612.7502 Q293.9063,612.7502 292.5781,611.1096 Q291.2656,609.4533 291.2656,606.3283 Q291.2656,603.2033 292.5781,601.5471 Q293.9063,599.8908 296.4063,599.8908 Q297.1094,599.8908 297.75,600.0471 Q298.4063,600.2033 298.9688,600.5002 L298.9688,603.219 Q298.3438,602.6408 297.75,602.3752 Q297.1563,602.094 296.5313,602.094 Q295.1875,602.094 294.5,603.1721 Q293.8125,604.2346 293.8125,606.3283 Q293.8125,608.4221 294.5,609.5002 Q295.1875,610.5627 296.5313,610.5627 Q297.1563,610.5627 297.75,610.2971 Q298.3438,610.0158 298.9688,609.4377 L298.9688,612.1565 Z "/><text fill="#000000" font-family="sans-serif" font-size="12" lengthAdjust="spacingAndGlyphs" textLength="48" x="311" y="611.1719">Reaction</text><line style="stroke: #A80036; stroke-width: 1.5;" x1="277.5" x2="365.5" y1="622.5158" y2="622.5158"/><ellipse cx="287.5" cy="633.5158" fill="none" rx="3" ry="3" style="stroke: #038048; stroke-width: 1.0;"/><text fill="#000000" font-family="sans-serif" font-size="11" lengthAdjust="spacingAndGlyphs" textLength="41" x="296.5" y="638.2748">UUID id</text><ellipse cx="287.5" cy="648.4977" fill="none" rx="3" ry="3" style="stroke: #038048; stroke-width: 1.0;"/><text fill="#000000" font-family="sans-serif" font-size="11" lengthAdjust="spacingAndGlyphs" textLength="63" x="296.5" y="653.2566">string name</text><ellipse cx="287.5" cy="663.4796" fill="none" rx="3" ry="3" style="stroke: #038048; stroke-width: 1.0;"/><text fill="#000000" font-family="sans-serif" font-size="11" lengthAdjust="spacingAndGlyphs" textLength="64" x="296.5" y="668.2385">json params</text><line style="stroke: #A80036; stroke-width: 1.5;" x1="277.5" x2="365.5" y1="675.4615" y2="675.4615"/><!--MD5=[7cfcec95ce8c7b3cc21f2a5540b61e10]
class Area--><rect fill="#FEFECE" filter="url(#fphwoqz3b5955)" height="122.9094" id="Area" style="stroke: #A80036; stroke-width: 1.5;" width="104" x="264.5" y="388.5158"/><ellipse cx="299.75" cy="404.5158" fill="#ADD1B2" rx="11" ry="11" style="stroke: #A80036; stroke-width: 1.0;"/><path d="M302.7188,410.1565 Q302.1406,410.4533 301.5,410.594 Q300.8594,410.7502 300.1563,410.7502 Q297.6563,410.7502 296.3281,409.1096 Q295.0156,407.4533 295.0156,404.3283 Q295.0156,401.2033 296.3281,399.5471 Q297.6563,397.8908 300.1563,397.8908 Q300.8594,397.8908 301.5,398.0471 Q302.1563,398.2033 302.7188,398.5002 L302.7188,401.219 Q302.0938,400.6408 301.5,400.3752 Q300.9063,400.094 300.2813,400.094 Q298.9375,400.094 298.25,401.1721 Q297.5625,402.2346 297.5625,404.3283 Q297.5625,406.4221 298.25,407.5002 Q298.9375,408.5627 300.2813,408.5627 Q300.9063,408.5627 301.5,408.2971 Q302.0938,408.0158 302.7188,407.4377 L302.7188,410.1565 Z "/><text fill="#000000" font-family="sans-serif" font-size="12" lengthAdjust="spacingAndGlyphs" textLength="27" x="318.25" y="409.1719">Area</text><line style="stroke: #A80036; stroke-width: 1.5;" x1="265.5" x2="367.5" y1="420.5158" y2="420.5158"/><ellipse cx="275.5" cy="431.5158" fill="none" rx="3" ry="3" style="stroke: #038048; stroke-width: 1.0;"/><text fill="#000000" font-family="sans-serif" font-size="11" lengthAdjust="spacingAndGlyphs" textLength="41" x="284.5" y="436.2748">UUID id</text><ellipse cx="275.5" cy="446.4977" fill="none" rx="3" ry="3" style="stroke: #038048; stroke-width: 1.0;"/><text fill="#000000" font-family="sans-serif" font-size="11" lengthAdjust="spacingAndGlyphs" textLength="69" x="284.5" y="451.2566">UUID user_id</text><ellipse cx="275.5" cy="461.4796" fill="none" rx="3" ry="3" style="stroke: #038048; stroke-width: 1.0;"/><text fill="#000000" font-family="sans-serif" font-size="11" lengthAdjust="spacingAndGlyphs" textLength="78" x="284.5" y="466.2385">UUID action_id</text><ellipse cx="275.5" cy="476.4615" fill="none" rx="3" ry="3" style="stroke: #038048; stroke-width: 1.0;"/><text fill="#000000" font-family="sans-serif" font-size="11" lengthAdjust="spacingAndGlyphs" textLength="66" x="284.5" y="481.2204">list reactions</text><ellipse cx="275.5" cy="491.4434" fill="none" rx="3" ry="3" style="stroke: #038048; stroke-width: 1.0;"/><text fill="#000000" font-family="sans-serif" font-size="11" lengthAdjust="spacingAndGlyphs" textLength="69" x="284.5" y="496.2023">bool enabled</text><line style="stroke: #A80036; stroke-width: 1.5;" x1="265.5" x2="367.5" y1="503.4253" y2="503.4253"/><!--MD5=[ecfb911ddb7483c525624c866b70b857]
class HookScheduler--><rect fill="#FEFECE" filter="url(#fphwoqz3b5955)" height="77.9638" id="HookScheduler" style="stroke: #A80036; stroke-width: 1.5;" width="142" x="245.5" y="209.0158"/><ellipse cx="271.75" cy="225.0158" fill="#ADD1B2" rx="11" ry="11" style="stroke: #A80036; stroke-width: 1.0;"/><path d="M274.7188,230.6565 Q274.1406,230.9533 273.5,231.094 Q272.8594,231.2502 272.1563,231.2502 Q269.6563,231.2502 268.3281,229.6096 Q267.0156,227.9533 267.0156,224.8283 Q267.0156,221.7033 268.3281,220.0471 Q269.6563,218.3908 272.1563,218.3908 Q272.8594,218.3908 273.5,218.5471 Q274.1563,218.7033 274.7188,219.0002 L274.7188,221.719 Q274.0938,221.1408 273.5,220.8752 Q272.9063,220.594 272.2813,220.594 Q270.9375,220.594 270.25,221.6721 Q269.5625,222.7346 269.5625,224.8283 Q269.5625,226.9221 270.25,228.0002 Q270.9375,229.0627 272.2813,229.0627 Q272.9063,229.0627 273.5,228.7971 Q274.0938,228.5158 274.7188,227.9377 L274.7188,230.6565 Z "/><text fill="#000000" font-family="sans-serif" font-size="12" lengthAdjust="spacingAndGlyphs" textLength="85" x="288.25" y="229.6719">HookScheduler</text><line style="stroke: #A80036; stroke-width: 1.5;" x1="246.5" x2="386.5" y1="241.0158" y2="241.0158"/><line style="stroke: #A80036; stroke-width: 1.5;" x1="246.5" x2="386.5" y1="249.0158" y2="249.0158"/><ellipse cx="256.5" cy="260.0158" fill="#84BE84" rx="3" ry="3" style="stroke: #038048; stroke-width: 1.0;"/><text fill="#000000" font-family="sans-serif" font-size="11" lengthAdjust="spacingAndGlyphs" textLength="25" x="265.5" y="264.7748">run()</text><ellipse cx="256.5" cy="274.9977" fill="#84BE84" rx="3" ry="3" style="stroke: #038048; stroke-width: 1.0;"/><text fill="#000000" font-family="sans-serif" font-size="11" lengthAdjust="spacingAndGlyphs" textLength="116" x="265.5" y="279.7566">evaluate(action_event)</text><!--MD5=[19ffc815b7972f6e117e15ae1cac7b2c]
class ServerAPI--><rect fill="#FEFECE" filter="url(#fphwoqz3b5955)" height="92.9457" id="ServerAPI" style="stroke: #A80036; stroke-width: 1.5;" width="116" x="81.5" y="32.5158"/><ellipse cx="109.1" cy="48.5158" fill="#ADD1B2" rx="11" ry="11" style="stroke: #A80036; stroke-width: 1.0;"/><path d="M112.0688,54.1565 Q111.4906,54.4533 110.85,54.594 Q110.2094,54.7502 109.5063,54.7502 Q107.0063,54.7502 105.6781,53.1096 Q104.3656,51.4533 104.3656,48.3283 Q104.3656,45.2033 105.6781,43.5471 Q107.0063,41.8908 109.5063,41.8908 Q110.2094,41.8908 110.85,42.0471 Q111.5063,42.2033 112.0688,42.5002 L112.0688,45.219 Q111.4438,44.6408 110.85,44.3752 Q110.2563,44.094 109.6313,44.094 Q108.2875,44.094 107.6,45.1721 Q106.9125,46.2346 106.9125,48.3283 Q106.9125,50.4221 107.6,51.5002 Q108.2875,52.5627 109.6313,52.5627 Q110.2563,52.5627 110.85,52.2971 Q111.4438,52.0158 112.0688,51.4377 L112.0688,54.1565 Z "/><text fill="#000000" font-family="sans-serif" font-size="12" lengthAdjust="spacingAndGlyphs" textLength="56" x="125.9" y="53.1719">ServerAPI</text><line style="stroke: #A80036; stroke-width: 1.5;" x1="82.5" x2="196.5" y1="64.5158" y2="64.5158"/><ellipse cx="92.5" cy="75.5158" fill="none" rx="3" ry="3" style="stroke: #038048; stroke-width: 1.0;"/><text fill="#000000" font-family="sans-serif" font-size="11" lengthAdjust="spacingAndGlyphs" textLength="90" x="101.5" y="80.2748">POST /auth/login</text><ellipse cx="92.5" cy="90.4977" fill="none" rx="3" ry="3" style="stroke: #038048; stroke-width: 1.0;"/><text fill="#000000" font-family="sans-serif" font-size="11" lengthAdjust="spacingAndGlyphs" textLength="63" x="101.5" y="95.2566">POST /areas</text><ellipse cx="92.5" cy="105.4796" fill="none" rx="3" ry="3" style="stroke: #038048; stroke-width: 1.0;"/><text fill="#000000" font-family="sans-serif" font-size="11" lengthAdjust="spacingAndGlyphs" textLength="68" x="101.5" y="110.2385">GET /services</text><line style="stroke: #A80036; stroke-width: 1.5;" x1="82.5" x2="196.5" y1="117.4615" y2="117.4615"/><!--MD5=[8864304d05f09d07cd86d4317cbe0e0a]
link User to UserService--><path d="M120.73,309.5658 C113,334.5158 104.05,363.3658 96.31,388.3258 " fill="none" id="User-UserService" style="stroke: #A80036; stroke-width: 1.0;"/><text fill="#000000" font-family="sans-serif" font-size="13" lengthAdjust="spacingAndGlyphs" textLength="7" x="111.2942" y="331.1681">1</text><text fill="#000000" font-family="sans-serif" font-size="13" lengthAdjust="spacingAndGlyphs" textLength="7" x="91.1759" y="376.717">*</text><!--MD5=[dd3d36e24ea7197fc473f304e8e9fc9e]
link User to Area--><path d="M193.09,309.5658 C215.67,335.0858 241.88,364.6958 264.31,390.0458 " fill="none" id="User-Area" style="stroke: #A80036; stroke-width: 1.0;"/><text fill="#000000" font-family="sans-serif" font-size="13" lengthAdjust="spacingAndGlyphs" textLength="7" x="191.5686" y="331.1681">1</text><text fill="#000000" font-family="sans-serif" font-size="13" lengthAdjust="spacingAndGlyphs" textLength="7" x="249.4786" y="377.3703">*</text><!--MD5=[81a266706e305807b1ff1ea3d586a78a]
link Service to Action--><path d="M448.5,489.3458 C448.5,518.6658 448.5,559.1858 448.5,590.2158 " fill="none" id="Service-Action" style="stroke: #A80036; stroke-width: 1.0;"/><text fill="#000000" font-family="sans-serif" font-size="13" lengthAdjust="spacingAndGlyphs" textLength="7" x="440.9422" y="510.9249">1</text><text fill="#000000" font-family="sans-serif" font-size="13" lengthAdjust="spacingAndGlyphs" textLength="7" x="440.9641" y="578.7033">*</text><!--MD5=[3b659d0e93f381a2a1dd341fa9182824]
link Service to Reaction--><path d="M425.71,489.0758 C412.66,510.3958 395.69,537.2858 379.5,560.5158 C372.7,570.2758 365.13,580.5258 357.77,590.2058 " fill="none" id="Service-Reaction" style="stroke: #A80036; stroke-width: 1.0;"/><text fill="#000000" font-family="sans-serif" font-size="13" lengthAdjust="spacingAndGlyphs" textLength="7" x="414.3557" y="510.9115">1</text><text fill="#000000" font-family="sans-serif" font-size="13" lengthAdjust="spacingAndGlyphs" textLength="7" x="355.7879" y="578.6917">*</text><!--MD5=[dc02bf1721dc48ccfd029613e45324fb]
link Area to Reaction--><path d="M318.14,511.5958 C318.83,537.1958 319.62,566.5258 320.26,590.2758 " fill="none" id="Area-Reaction" style="stroke: #A80036; stroke-width: 1.0;"/><text fill="#000000" font-family="sans-serif" font-size="13" lengthAdjust="spacingAndGlyphs" textLength="51" x="319.5" y="556.4129">contains</text><text fill="#000000" font-family="sans-serif" font-size="13" lengthAdjust="spacingAndGlyphs" textLength="7" x="310.9366" y="533.2014">1</text><text fill="#000000" font-family="sans-serif" font-size="13" lengthAdjust="spacingAndGlyphs" textLength="7" x="312.5342" y="578.7724">*</text><!--MD5=[013ea2070d23e5b9d362adfa5a9ca9dd]
link HookScheduler to Area--><path d="M316.5,287.1058 C316.5,314.2158 316.5,351.3358 316.5,383.1958 " fill="none" id="HookScheduler-&gt;Area" style="stroke: #A80036; stroke-width: 1.0; stroke-dasharray: 7.0,7.0;"/><polygon fill="#A80036" points="316.5,388.2558,320.5,379.2558,316.5,383.2558,312.5,379.2558,316.5,388.2558" style="stroke: #A80036; stroke-width: 1.0;"/><text fill="#000000" font-family="sans-serif" font-size="13" lengthAdjust="spacingAndGlyphs" textLength="33" x="317.5" y="354.4129">reads</text><!--MD5=[a36f68cf212c97174ea275067fd2af85]
link ServerAPI to User--><path d="M139.5,125.6458 C139.5,142.7758 139.5,162.5958 139.5,181.1958 " fill="none" id="ServerAPI-&gt;User" style="stroke: #A80036; stroke-width: 1.0; stroke-dasharray: 7.0,7.0;"/><polygon fill="#A80036" points="139.5,186.3958,143.5,177.3958,139.5,181.3958,135.5,177.3958,139.5,186.3958" style="stroke: #A80036; stroke-width: 1.0;"/><!--MD5=[14a91829e69d92638a932d51779ae82d]
link ServerAPI to Area--><path d="M197.57,84.8558 C260.82,93.5758 359.15,118.0258 405.5,186.5158 C446.44,247.0058 407.54,328.0558 369.08,384.0158 " fill="none" id="ServerAPI-&gt;Area" style="stroke: #A80036; stroke-width: 1.0; stroke-dasharray: 7.0,7.0;"/><polygon fill="#A80036" points="366.08,388.3358,374.5074,383.2388,368.9387,384.2337,367.9439,378.665,366.08,388.3358" style="stroke: #A80036; stroke-width: 1.0;"/><!--MD5=[8a45676f00bb7344ccae63953e46743b]
link ServerAPI to UserService--><path d="M90.1,125.5758 C74.67,142.9658 59.58,164.0558 51.5,186.5158 C28.4,250.7258 41,329.1158 55.57,383.4258 " fill="none" id="ServerAPI-&gt;UserService" style="stroke: #A80036; stroke-width: 1.0; stroke-dasharray: 7.0,7.0;"/><polygon fill="#A80036" points="56.89,388.2858,58.3786,378.5501,55.5732,383.4624,50.661,380.657,56.89,388.2858" style="stroke: #A80036; stroke-width: 1.0;"/><!--MD5=[3f1d114f219eee9bd67fadd22bfdcf6b]
@startuml
title Architecture - Class Diagram
class User {
  +UUID id
  +string email
  +string password_hash
  +register()
  +login()
}
class Service {
  +UUID id
  +string name
}
class UserService {
  +UUID id
  +UUID user_id
  +UUID service_id
  +string oauth_token
  +datetime token_expiry
}
class Action {
  +UUID id
  +string name
  +json schema
}
class Reaction {
  +UUID id
  +string name
  +json params
}
class Area {
  +UUID id
  +UUID user_id
  +UUID action_id
  +list reactions
  +bool enabled
}
class HookScheduler {
  +run()
  +evaluate(action_event)
}
class ServerAPI {
  +POST /auth/login
  +POST /areas
  +GET /services
}

User "1" - - "*" UserService
User "1" - - "*" Area
Service "1" - - "*" Action
Service "1" - - "*" Reaction
Area "1" - - "*" Reaction : contains
HookScheduler ..> Area : reads
ServerAPI ..> User
ServerAPI ..> Area
ServerAPI ..> UserService
@enduml

PlantUML version 1.2020.02(Sun Mar 01 11:22:07 CET 2020)
(GPL source distribution)
Java Runtime: OpenJDK Runtime Environment
JVM: OpenJDK 64-Bit Server VM
Java Version: 21.0.8+9-Ubuntu-0ubuntu124.04.1
Operating System: Linux
Default Encoding: UTF-8
Language: en
Country: US
--></g></svg>